
<svg version="1.1" id="Layer_1" xmlns="http://www.w3.org/2000/svg" xmlns:xlink="http://www.w3.org/1999/xlink" x="0px" y="0px"
	 viewBox="0 0 1955 640" style="enable-background:new 0 0 1955 640;" xml:space="preserve">
<g transform="translate(0.000000,3016.000000) scale(0.100000,-0.100000)" fill="#000">
	<path d="M160.4,30135.8c-59-23-102-59-125-108l-21-43v-2030c0-2146-1-2117,45-2339c71-344,224-667,446-943c84-103,284-301,389-385
		c398-318,831-481,1332-504c171-7,217,2,278,54c60,52,83,104,83,188c0,81-23,136-75,180c-55,46-90,55-266,66c-136,8-197,18-332,50
		c-389,94-619,217-855,460c-336,346-506,696-554,1141c-7,65-11,750-11,2065c0,1342-3,1980-11,2006c-13,48-61,102-113,129
		C317.4,30149.8,214.4,30155.8,160.4,30135.8z"/>
	<path d="M10844.4,30141.8c-76-25-121-62-151-126c-18-39-19-113-19-2050c0-1731,2-2028,15-2139c62-529,277-969,660-1351
		c329-328,719-549,1127-638c175-39,279-51,453-51c156-1,161,0,206,26c152,89,158,315,11,413c-46,30-108,42-277,50
		c-288,14-663,136-900,293c-112,75-310,266-419,405c-223,286-352,613-386,982c-6,70-10,823-10,2065c0,1884-1,1956-19,1995
		c-39,83-104,126-199,131C10899.4,30148.8,10858.4,30146.8,10844.4,30141.8z"/>
	<path d="M15719.4,30137.8c-66-25-104-58-130-111l-25-52l2-2070l3-2069l22-120c46-249,100-420,198-620c296-607,911-1104,1550-1253
		c192-45,499-74,607-58c175,26,259,258,143,394c-59,69-100,82-292,94c-354,21-720,142-973,321c-115,81-272,237-381,377
		c-227,291-354,611-389,975c-6,72-10,796-10,2070c0,1882-1,1962-19,2001c-22,49-92,111-140,124
		C15838.4,30153.8,15757.4,30151.8,15719.4,30137.8z"/>
	<path d="M3621.4,29310.8c-91-23-168-84-209-169c-32-65-32-186,1-253c53-109,154-171,277-171c125,0,217,61,272,181
		c32,71,29,182-8,255C3895.4,29271.8,3747.4,29340.8,3621.4,29310.8z"/>
	<path d="M14281.4,29310.8c-138-35-230-152-230-295c0-83,23-142,78-203c115-128,325-128,440,0c110,121,106,304-8,416
		C14489.4,29299.8,14373.4,29333.8,14281.4,29310.8z"/>
	<path d="M19171.4,29310.8c-230-58-311-344-144-508c122-119,320-115,432,10c56,61,77,118,77,203s-21,142-77,203
		C19391.4,29294.8,19266.4,29333.8,19171.4,29310.8z"/>
	<path d="M3579.4,28333.8c-44-23-84-63-106-106c-19-37-20-79-19-2159v-2122l29-50c38-69,99-107,183-113c117-9,173,21,227,122l26,50
		l3,2094c1,1403-1,2106-8,2131c-15,56-70,133-110,152C3758.4,28356.8,3622.4,28356.8,3579.4,28333.8z"/>
	<path d="M14236.4,28329.8c-51-26-99-81-112-129c-15-52-13-4212,1-4265c14-52,90-126,145-143c23-6,61-12,85-12c103,0,160,38,205,135
		l24,50v2094c0,1476-3,2104-11,2130c-14,46-56,108-92,135C14438.4,28356.8,14295.4,28359.8,14236.4,28329.8z"/>
	<path d="M19127.4,28329.8c-48-23-89-67-110-116c-11-27-13-395-13-2145c0-2031,1-2115,19-2154c24-52,90-108,147-124s154-8,195,17
		c17,10,47,45,67,77l37,59l3,2110l2,2110l-26,56c-47,104-90,131-206,131C19188.4,28350.8,19158.4,28345.8,19127.4,28329.8z"/>
	<path d="M6929.4,28295.8c-761-107-1386-567-1730-1270c-155-318-217-594-217-980c0-634,218-1162,662-1605c343-343,727-545,1200-631
		c167-31,516-38,700-14c552,70,1069,356,1452,805l48,55v-336c0-364,4-398,55-465c96-126,324-103,391,39l24,52v1140
		c0,685-4,1176-10,1230c-53,485-263,934-607,1295c-344,362-758,585-1253,675C7514.4,28309.8,7072.4,28315.8,6929.4,28295.8z
		 M7609.4,27810.8c241-52,479-155,664-288c110-78,274-232,365-341c191-229,311-476,373-770c25-116,27-144,27-361s-2-245-27-361
		c-79-371-255-684-535-950c-251-240-526-385-861-456c-116-25-145-27-361-28c-207,0-249,3-348,23c-164,33-308,83-457,157
		c-417,208-766,610-909,1048c-67,202-81,303-81,567c0,265,15,370,81,568c93,277,236,497,475,727c275,265,594,424,963,480
		C7120.4,27847.8,7480.4,27838.8,7609.4,27810.8z"/>
	<path d="M7085.4,27279.8c-189-22-415-113-567-227c-175-132-338-333-415-512c-138-320-132-713,16-1025c163-343,483-602,849-688
		c132-31,430-31,562,0c367,86,683,345,850,697c106,225,139,509,89,775c-69,362-346,709-698,876
		C7570.4,27271.8,7328.4,27307.8,7085.4,27279.8z"/>
</g>
</svg>
